<?xml version="1.0" standalone="no"?>
<!DOCTYPE svg PUBLIC "-//W3C//DTD SVG 20010904//EN"
 "http://www.w3.org/TR/2001/REC-SVG-20010904/DTD/svg10.dtd">
<svg version="1.0" xmlns="http://www.w3.org/2000/svg"
 width="500.000000pt" height="500.000000pt" viewBox="0 0 500.000000 500.000000"
 preserveAspectRatio="xMidYMid meet">
<metadata>
Created by potrace 1.16, written by Peter Selinger 2001-2019
</metadata>
<g transform="translate(0.000000,500.000000) scale(0.100000,-0.100000)"
fill="#000000" stroke="none">
<path d="M2445 3726 c-146 -46 -347 -203 -370 -289 -3 -12 -49 -111 -103 -219
l-97 -198 -284 0 c-268 0 -285 -1 -317 -20 -19 -12 -37 -34 -43 -53 -20 -63
-322 -2012 -317 -2046 7 -44 50 -89 94 -97 19 -4 57 -2 86 4 34 8 513 15 1471
22 781 6 1449 13 1485 16 55 5 69 11 96 38 44 44 52 92 26 148 -13 27 -85 379
-197 958 -97 503 -184 930 -194 949 -31 66 -53 71 -346 71 -143 0 -276 3 -297
6 l-36 6 -108 237 c-112 244 -127 267 -264 412 -59 61 -187 86 -285 55z m171
-324 c42 -54 80 -121 127 -224 37 -80 67 -149 67 -152 0 -3 -144 -6 -320 -6
-176 0 -320 3 -320 6 0 4 40 84 89 178 65 124 99 178 123 196 52 38 131 80
153 80 13 0 41 -27 81 -78z m-876 -664 c0 -13 9 -42 19 -64 15 -34 28 -45 65
-59 40 -15 53 -16 87 -6 41 12 83 59 109 121 l12 30 452 0 452 0 30 -70 c35
-84 62 -116 112 -130 81 -24 162 37 162 122 0 22 -4 47 -9 56 -8 16 4 17 157
14 92 -2 169 -6 171 -8 6 -5 323 -1636 319 -1639 -7 -6 -2669 -28 -2675 -22
-5 5 229 1532 253 1650 l6 27 139 0 c137 0 139 0 139 -22z"/>
<path d="M2463 2683 c-18 -21 -46 -54 -63 -73 -28 -32 -65 -84 -126 -180 -33
-51 -94 -182 -100 -215 -3 -15 -9 -35 -13 -44 -32 -61 -36 -309 -7 -389 8 -23
15 -44 16 -47 0 -3 0 -6 1 -7 0 -2 2 -11 4 -20 5 -29 72 -161 112 -220 66 -98
240 -288 264 -288 17 0 124 110 176 180 22 30 55 82 73 115 18 33 36 65 40 70
10 14 51 125 56 154 3 14 7 28 10 32 2 4 9 44 14 88 32 249 -88 547 -329 820
-64 72 -84 76 -128 24z m83 -96 c10 -12 32 -40 48 -62 17 -22 32 -42 35 -45
47 -42 171 -296 186 -380 15 -83 24 -182 20 -207 -3 -16 -7 -50 -9 -78 -9 -98
-62 -236 -127 -332 -54 -81 -132 -173 -145 -173 -32 0 -195 200 -248 305 -24
49 -46 100 -52 120 -27 100 -34 139 -34 212 -1 49 3 113 9 143 25 146 131 348
266 507 15 18 29 16 51 -10z"/>
<path d="M2507 2554 c-4 -4 -7 -40 -7 -81 l0 -73 -34 38 c-27 29 -37 34 -47
25 -9 -9 -2 -26 35 -74 39 -54 46 -70 46 -110 0 -25 3 -62 6 -80 l7 -34 -34
44 c-58 76 -101 121 -115 121 -26 0 -27 -23 -2 -45 14 -12 34 -35 44 -51 10
-16 38 -54 61 -86 43 -56 43 -56 43 -143 0 -54 -4 -84 -10 -80 -5 3 -43 47
-84 98 -98 122 -133 154 -148 139 -8 -8 -5 -18 13 -41 13 -16 51 -62 83 -103
33 -40 79 -93 103 -118 l43 -46 6 -99 c4 -65 3 -96 -3 -90 -6 6 -36 44 -69 85
-69 88 -151 170 -169 170 -32 0 -23 -24 24 -66 27 -25 67 -68 88 -97 20 -29
59 -77 86 -108 45 -53 48 -60 45 -105 l-3 -48 -59 52 c-33 29 -64 51 -70 49
-25 -8 -7 -37 61 -95 66 -57 72 -66 75 -104 2 -30 8 -43 18 -43 11 0 16 13 18
45 2 32 11 53 31 75 53 57 92 115 86 125 -13 20 -32 9 -70 -42 l-40 -53 -3 49
c-2 36 2 56 15 72 10 13 54 66 98 119 124 150 120 144 108 156 -18 18 -44 -7
-134 -123 -95 -123 -97 -123 -98 9 l-1 83 110 122 c102 113 122 146 94 155 -5
2 -53 -45 -105 -104 l-94 -108 -3 93 -3 93 40 38 c50 48 114 148 107 167 -10
26 -25 14 -70 -54 -25 -38 -55 -77 -66 -87 -20 -18 -20 -18 -20 64 l0 83 47
54 c35 42 43 58 35 66 -9 9 -20 4 -47 -22 l-34 -33 -3 78 c-3 72 -13 97 -31
79z"/>
</g>
</svg>
