<?xml version="1.0" standalone="no"?>
<!DOCTYPE svg PUBLIC "-//W3C//DTD SVG 20010904//EN"
 "http://www.w3.org/TR/2001/REC-SVG-20010904/DTD/svg10.dtd">
<svg version="1.0" xmlns="http://www.w3.org/2000/svg"
 width="500.000000pt" height="500.000000pt" viewBox="0 0 500.000000 500.000000"
 preserveAspectRatio="xMidYMid meet">
<metadata>
Created by potrace 1.16, written by Peter Selinger 2001-2019
</metadata>
<g transform="translate(0.000000,500.000000) scale(0.100000,-0.100000)"
fill="#000000" stroke="none">
<path d="M2405 3801 c-42 -26 -38 -20 -275 -386 -192 -296 -213 -334 -213
-371 0 -24 7 -54 17 -69 23 -35 74 -65 112 -65 61 0 92 35 269 307 l170 261
31 -37 c17 -20 71 -83 119 -140 84 -99 86 -102 44 -75 -85 53 -214 39 -253
-27 -33 -56 -19 -142 29 -173 34 -22 423 -197 473 -212 77 -24 168 10 192 71
4 11 24 145 45 297 37 271 38 279 21 316 -22 48 -61 72 -116 72 -82 0 -126
-50 -137 -155 l-6 -53 -173 206 c-96 114 -188 217 -206 230 -39 27 -101 29
-143 3z"/>
<path d="M1430 2241 c-52 -22 -176 -75 -275 -118 -203 -89 -225 -107 -225
-191 0 -38 5 -50 39 -83 49 -50 92 -52 192 -9 38 16 69 26 69 23 0 -5 -273
-433 -367 -574 -26 -40 -31 -109 -9 -147 28 -51 115 -79 165 -53 11 6 199 4
503 -5 542 -17 538 -17 578 48 39 64 17 148 -48 182 -21 11 -124 17 -427 26
-220 6 -401 13 -403 15 -2 2 52 89 120 194 101 157 124 186 129 168 12 -45 50
-107 75 -123 14 -10 45 -18 69 -18 53 -1 92 24 119 78 l18 37 -41 202 c-23
111 -41 222 -41 247 0 48 -26 102 -57 118 -49 27 -87 23 -183 -17z"/>
<path d="M3443 2201 c-25 -12 -48 -32 -57 -50 -35 -66 -29 -82 177 -449 105
-190 194 -349 195 -354 2 -4 -106 -8 -240 -8 l-243 1 68 35 c59 30 71 41 88
79 32 73 6 141 -68 171 -18 8 -42 14 -53 14 -30 0 -531 -254 -556 -281 -12
-13 -34 -50 -49 -82 -30 -64 -28 -114 4 -154 27 -33 460 -305 503 -316 71 -18
153 47 152 121 0 67 -11 88 -61 119 l-48 28 385 5 c292 4 391 8 408 18 52 30
75 106 51 169 -5 15 -121 227 -256 469 -174 311 -254 446 -272 457 -45 26 -83
28 -128 8z"/>
</g>
</svg>
