<?xml version="1.0" standalone="no"?>
<!DOCTYPE svg PUBLIC "-//W3C//DTD SVG 20010904//EN"
 "http://www.w3.org/TR/2001/REC-SVG-20010904/DTD/svg10.dtd">
<svg version="1.0" xmlns="http://www.w3.org/2000/svg"
 width="500.000000pt" height="500.000000pt" viewBox="0 0 500.000000 500.000000"
 preserveAspectRatio="xMidYMid meet">
<metadata>
Created by potrace 1.16, written by Peter Selinger 2001-2019
</metadata>
<g transform="translate(0.000000,500.000000) scale(0.100000,-0.100000)"
fill="#000000" stroke="none">
<path d="M2429 4909 c-26 -10 -1852 -2048 -1877 -2096 -24 -44 -27 -127 -7
-160 32 -54 59 -63 200 -63 l127 0 -7 -942 c-3 -519 -8 -961 -11 -984 -6 -55
5 -82 88 -196 72 -101 86 -113 148 -132 36 -10 538 -22 1375 -32 555 -6 1403
10 1455 27 61 20 86 53 125 167 l36 106 -1 1003 -1 1003 100 0 c92 0 102 2
130 26 60 50 59 139 -2 203 -19 20 -413 481 -876 1026 -463 545 -851 1000
-862 1012 -12 12 -37 27 -57 33 -43 12 -49 12 -83 -1z m776 -1184 l724 -850
-762 -7 c-901 -9 -2079 -4 -2156 8 l-55 9 755 847 c415 465 757 846 762 845 4
-1 334 -385 732 -852z m617 -2087 c2 -784 0 -981 -10 -1015 l-13 -42 -62 -5
c-34 -3 -196 -7 -361 -10 l-299 -4 4 668 4 668 -25 27 c-47 51 -52 52 -560 54
-439 2 -478 1 -510 -16 -69 -35 -69 -39 -70 -492 0 -223 -3 -517 -6 -653 l-7
-248 -358 0 -357 0 -37 50 -37 51 1 272 c0 150 4 584 7 964 l7 693 796 3 c438
1 1042 3 1343 5 l547 2 3 -972z m-995 -225 c-4 -170 -7 -431 -7 -580 l0 -273
-327 0 -326 0 6 257 c4 141 7 402 7 580 l0 323 327 0 326 0 -6 -307z"/>
</g>
</svg>
