<?xml version="1.0" standalone="no"?>
<!DOCTYPE svg PUBLIC "-//W3C//DTD SVG 20010904//EN"
 "http://www.w3.org/TR/2001/REC-SVG-20010904/DTD/svg10.dtd">
<svg version="1.0" xmlns="http://www.w3.org/2000/svg"
 width="500.000000pt" height="500.000000pt" viewBox="0 0 500.000000 500.000000"
 preserveAspectRatio="xMidYMid meet">
<metadata>
Created by potrace 1.16, written by Peter Selinger 2001-2019
</metadata>
<g transform="translate(0.000000,500.000000) scale(0.100000,-0.100000)"
fill="#000000" stroke="none">
<path d="M2475 4820 c-11 -5 -31 -11 -45 -14 -28 -6 -544 -489 -819 -766 -197
-199 -375 -395 -472 -520 -164 -211 -301 -466 -376 -700 -34 -105 -42 -275
-19 -389 72 -354 383 -726 709 -846 26 -10 47 -19 47 -21 0 -1 -7 -30 -16 -65
-25 -98 -7 -195 53 -282 24 -34 25 -39 10 -55 -66 -72 -82 -231 -35 -334 45
-98 144 -179 236 -194 l39 -6 -1 -97 c0 -84 3 -103 26 -153 47 -102 137 -174
246 -197 72 -15 812 -15 884 0 154 33 267 162 271 311 1 35 -2 80 -6 101 -7
31 -5 38 10 43 98 31 179 101 220 190 20 44 26 74 27 128 0 86 -14 137 -55
199 -29 44 -30 49 -16 65 53 59 76 177 52 277 -8 37 -14 69 -13 70 2 1 50 19
107 40 285 106 534 335 662 610 113 244 87 501 -87 849 -121 241 -314 493
-679 886 -152 163 -807 840 -833 861 -26 20 -90 25 -127 9z m387 -627 c381
-396 445 -464 599 -639 314 -356 451 -579 540 -874 30 -99 30 -221 0 -304 -84
-236 -308 -455 -559 -546 -172 -62 -177 -63 -966 -67 -789 -5 -797 -4 -944 56
-150 61 -305 192 -407 346 -112 168 -150 287 -143 455 4 97 8 114 53 225 50
127 139 297 207 399 150 223 413 507 903 973 193 183 355 333 361 333 7 0 167
-161 356 -357z m303 -2685 c31 -14 55 -55 55 -93 0 -36 -28 -81 -57 -94 -36
-16 -1363 -15 -1398 1 -70 32 -72 146 -4 184 33 18 1364 20 1404 2z m10 -450
c31 -14 55 -55 55 -93 0 -36 -28 -81 -57 -94 -36 -16 -1363 -15 -1398 1 -70
32 -72 146 -4 184 33 18 1364 20 1404 2z m-246 -452 c69 -36 65 -153 -6 -185
-35 -16 -813 -15 -848 1 -70 32 -72 146 -4 184 36 20 819 20 858 0z"/>
<path d="M2466 4309 l-26 -20 0 -210 c0 -146 -3 -209 -11 -209 -6 0 -29 14
-50 31 -39 30 -88 37 -96 13 -2 -6 32 -39 77 -73 l80 -62 0 -150 c0 -82 -2
-149 -5 -149 -3 0 -55 25 -116 56 -94 47 -118 55 -157 52 -25 -2 -47 -8 -49
-15 -3 -8 61 -45 161 -95 l166 -83 0 -177 c0 -115 -4 -178 -10 -178 -6 0 -115
38 -242 85 -229 84 -233 85 -324 85 -89 0 -119 -9 -97 -31 5 -5 158 -63 339
-128 l329 -119 3 -166 c2 -117 -1 -166 -9 -166 -6 0 -150 59 -321 130 l-309
130 -110 0 c-92 0 -111 -3 -116 -16 -3 -9 -2 -23 3 -31 9 -14 837 -363 862
-363 9 0 12 -36 12 -145 0 -80 -4 -145 -8 -145 -5 0 -125 43 -267 95 -257 95
-259 95 -351 95 -90 0 -119 -9 -97 -31 10 -10 696 -259 713 -259 6 0 10 -39
10 -98 0 -109 11 -132 62 -132 45 0 57 26 60 135 l3 98 338 123 c187 67 344
127 349 132 23 23 -5 32 -94 32 -89 0 -94 -1 -335 -90 -135 -49 -249 -90 -254
-90 -5 0 -9 63 -9 140 l0 140 41 0 c29 0 148 45 442 166 480 199 459 189 455
217 -3 21 -8 22 -115 25 l-113 3 -311 -131 c-172 -72 -329 -140 -350 -151 -21
-10 -41 -19 -44 -19 -3 0 -5 81 -5 180 0 166 1 180 18 180 23 0 701 245 714
258 23 23 -5 32 -94 32 -90 0 -93 -1 -352 -96 -143 -53 -267 -99 -273 -101
-10 -4 -13 36 -13 181 l0 187 183 89 c100 50 182 95 182 102 0 8 -17 14 -46
16 -39 3 -66 -6 -174 -58 -70 -33 -132 -60 -136 -60 -5 0 -9 67 -9 148 l0 149
86 67 c47 37 84 73 81 79 -9 27 -53 18 -104 -23 -28 -22 -53 -40 -56 -40 -3 0
-7 99 -9 221 -3 218 -3 221 -27 240 -30 24 -42 24 -75 -2z"/>
</g>
</svg>
